<?xml version="1.0" encoding="iso-8859-1"?>
<!-- Uploaded to: SVG Repo, www.svgrepo.com, Generator: SVG Repo Mixer Tools -->
<svg height="800px" width="800px" version="1.1" id="Layer_1" xmlns="http://www.w3.org/2000/svg" xmlns:xlink="http://www.w3.org/1999/xlink" 
	 viewBox="0 0 512 512" xml:space="preserve">
<path style="fill:#FFF3E6;" d="M433.486,188.544H256c0-0.011,0-0.022,0-0.033c0.022-36.935,39.744-66.87,88.743-66.87
	C393.753,121.641,433.486,151.598,433.486,188.544z"/>
<g>
	<path style="fill:#FB7B76;" d="M256,188.544c36.946,0,66.903,39.733,66.903,88.743S292.946,366.03,256,366.03V188.544z"/>
	<path style="fill:#FB7B76;" d="M256,188.511c0,0.011,0,0.022,0,0.033h-0.033c-36.935-0.022-66.87-39.744-66.87-88.743
		c0-49.01,29.957-88.743,66.903-88.743V188.511z"/>
</g>
<path style="fill:#FFF3E6;" d="M256,188.544c0,36.946-39.733,66.903-88.743,66.903s-88.743-29.957-88.743-66.903h177.453H256z"/>
<path d="M255.967,199.603c-0.002,0-0.004,0-0.007,0c-21.416-0.013-41.344-10.812-56.11-30.408
	c-14.065-18.665-21.811-43.31-21.811-69.393c0-26.091,7.751-50.74,21.825-69.408C214.641,10.794,234.577,0,256,0
	c6.106,0,11.058,4.952,11.058,11.058v177.453c0,3.064-1.247,5.839-3.261,7.843C261.795,198.361,259.026,199.603,255.967,199.603z
	 M244.942,23.646c-25.514,7.158-44.786,38.585-44.786,76.155c0,37.565,19.275,68.997,44.786,76.155V23.646z"/>
<path d="M167.257,266.505c-26.091,0-50.74-7.751-69.408-21.825c-19.6-14.777-30.394-34.713-30.394-56.136
	c0-6.106,4.952-11.058,11.058-11.058h177.453c6.106,0,11.092,4.952,11.092,11.058c0,21.423-10.794,41.359-30.394,56.136
	C217.997,258.755,193.348,266.505,167.257,266.505z M91.102,199.603c7.159,25.514,38.586,44.786,76.155,44.786
	s68.997-19.272,76.155-44.786H91.102z"/>
<path d="M256,377.089c-6.106,0-11.058-4.952-11.058-11.058c0-6.106,4.952-11.058,11.058-11.058
	c30.793,0,55.844-34.849,55.844-77.685S286.793,199.603,256,199.603c-6.106,0-11.058-4.952-11.058-11.058
	c0-6.106,4.952-11.058,11.058-11.058c21.423,0,41.359,10.794,56.136,30.394c14.074,18.668,21.825,43.317,21.825,69.408
	s-7.751,50.74-21.825,69.408C297.359,366.295,277.423,377.089,256,377.089z"/>
<path d="M433.486,199.603c-6.106,0-11.058-4.952-11.058-11.058c0-30.793-34.849-55.844-77.685-55.844
	c-37.565,0-68.997,19.275-76.155,44.786h102.695c6.106,0,11.058,4.952,11.058,11.058c0,6.106-4.952,11.058-11.058,11.058H256
	c-6.106,0-11.058-4.952-11.058-11.058c0.013-21.455,10.812-41.384,30.408-56.15c18.665-14.065,43.31-21.811,69.393-21.811
	c26.091,0,50.74,7.751,69.408,21.825c19.6,14.777,30.394,34.713,30.394,56.136C444.544,194.651,439.592,199.603,433.486,199.603z"/>
<path d="M405.748,199.603h-1.982c-6.106,0-11.058-4.952-11.058-11.058c0-6.106,4.952-11.058,11.058-11.058h1.982
	c6.106,0,11.058,4.952,11.058,11.058C416.807,194.651,411.855,199.603,405.748,199.603z"/>
<path d="M256,512c-6.106,0-11.058-4.952-11.058-11.058V188.544c0-6.106,4.952-11.058,11.058-11.058
	c6.106,0,11.058,4.952,11.058,11.058v312.397C267.058,507.048,262.106,512,256,512z"/>
</svg>