<?xml version="1.0" encoding="iso-8859-1"?>
<!-- Uploaded to: SVG Repo, www.svgrepo.com, Generator: SVG Repo Mixer Tools -->
<svg version="1.1" id="Layer_1" xmlns="http://www.w3.org/2000/svg" xmlns:xlink="http://www.w3.org/1999/xlink" 
	 viewBox="0 0 511.087 511.087" xml:space="preserve">
<path style="fill:#7D8B95;" d="M193.81,248.826c-2,6-1.2,12.8,2,18.4s8,9.6,14.4,11.6c12.8,3.6,26.4-3.6,30-16.4l0.4-2l-46.8-12.4
	L193.81,248.826z"/>
<g>
	<polygon style="fill:#AEB1B4;" points="456.21,289.626 487.01,178.026 471.81,173.626 386.21,270.826 	"/>
	<polygon style="fill:#AEB1B4;" points="475.41,294.826 505.41,182.826 487.01,177.626 456.61,289.226 	"/>
</g>
<g>
	<path style="fill:#7D8B95;" d="M6.61,194.026l236.8,63.6h0.4h0.4l91.2,24.4c16.4,4.4,34-0.4,46.8-12.8l91.2-103.2l-428.4-115.2
		L6.61,194.026z"/>
	<polygon style="fill:#7D8B95;" points="488.21,149.226 49.81,31.626 45.81,47.226 476.21,162.826 	"/>
</g>
<g>
	<path style="fill:#AEB1B4;" d="M344.21,254.826c1.2,0.4,2.4,0.4,3.6,0.4c6.4,0,11.6-4.4,13.2-10.4c2-7.2-2.4-14.8-9.6-16.8
		c-1.2-0.4-2.4-0.4-3.6-0.4c-6.4,0-11.6,4.4-13.2,10.4c-0.8,3.6-0.4,7.2,1.2,10.4S340.61,254.026,344.21,254.826z"/>
	<path style="fill:#AEB1B4;" d="M56.21,179.226c1.2,0.4,2.4,0.4,3.6,0.4c6.4,0,11.6-4.4,13.2-10.4c2-7.2-2.4-14.8-9.6-16.8
		c-1.2-0.4-2.4-0.4-3.6-0.4c-6.4,0-11.6,4.4-13.2,10.4c-0.8,3.6-0.4,7.2,1.2,10.4C49.81,176.026,52.61,178.426,56.21,179.226z"/>
</g>
<g>
	<path style="fill:#7D8B95;" d="M27.01,366.026v115.6c16-1.2,28-16,28-34.4v-51.6C55.01,378.826,43.01,366.826,27.01,366.026z"/>
	<rect x="7.01" y="364.426" style="fill:#7D8B95;" width="16" height="116"/>
	<path style="fill:#7D8B95;" d="M77.81,422.426c0-10.4-6.8-18.8-18.8-18.8v37.6C71.01,441.226,77.81,432.826,77.81,422.426z"/>
	<polygon style="fill:#7D8B95;" points="201.41,275.226 166.21,412.426 79.01,412.426 79.01,432.426 175.41,432.426 218.21,280.426 
			"/>
</g>
<path d="M347.81,289.626c-4.8,0-9.6-0.8-14-2l-330.8-88.8c-2-0.4-3.6-2.8-2.8-4.8l44.4-166.4c0.4-1.2,0.8-2,2-2.4s2-0.8,3.2-0.4
	l443.2,118.8c1.2,0.4,2.4,1.2,2.8,2.8c0.4,1.2,0,2.8-0.8,4l-108.4,122.8C375.41,284.026,361.81,289.626,347.81,289.626z
	 M9.01,192.426l326.8,87.6l0,0c16,4.4,32.4,0,44.8-12l104-118l-433.2-116L9.01,192.426z"/>
<path d="M477.01,301.226c-0.4,0-0.8,0-1.2,0l-94-25.2c-2-0.4-3.2-2.8-2.8-4.8s2.8-3.2,4.8-2.8l90,24l28.8-108l-33.2-8.8
	c-2-0.4-3.6-2.8-2.8-4.8s2.8-3.2,4.8-2.8l36.8,10c2,0.4,3.2,2.8,2.8,4.8l-30.8,115.6c-0.4,1.2-0.8,2-2,2.4
	C478.21,300.826,477.81,301.226,477.01,301.226z"/>
<path d="M473.01,168.026c-0.4,0-0.8,0-1.2,0l-429.6-115.6c-2-0.4-3.6-2.8-2.8-4.8s2.8-3.6,4.8-2.8l430,115.2c2,0.4,3.6,2.8,2.8,4.8
	C476.61,166.826,475.01,168.026,473.01,168.026z"/>
<path d="M347.81,261.226c-10.8,0-20-8.8-20-20s8.8-20,20-20s20,8.8,20,20S358.61,261.226,347.81,261.226z M347.81,229.626
	c-6.4,0-12,5.2-12,12s5.2,12,12,12s12-5.2,12-12S354.21,229.626,347.81,229.626z"/>
<path d="M59.81,185.626c-10.8,0-20-8.8-20-20s8.8-20,20-20s20,8.8,20,20S70.61,185.626,59.81,185.626z M59.81,154.026
	c-6.4,0-12,5.2-12,12s5.2,12,12,12c6.4,0,12-5.2,12-12S66.21,154.026,59.81,154.026z"/>
<path d="M25.81,486.426H5.01c-2.4,0-4-1.6-4-4v-120c0-2.4,1.6-4,4-4h20.8c20.4,0,35.2,16,35.2,37.6v51.6
	C61.01,469.626,45.81,486.426,25.81,486.426z M9.01,478.426h16.8c15.6,0,27.2-13.2,27.2-31.2v-51.6c0-17.6-11.2-29.6-27.2-29.6H9.01
	V478.426z"/>
<path d="M25.01,480.426c-2.4,0-4-1.6-4-4v-112c0-2.4,1.6-4,4-4s4,1.6,4,4v112C29.01,478.826,27.41,480.426,25.01,480.426z"/>
<path d="M60.21,447.226c-2.4,0-4-1.6-4-4s1.6-4,4-4c9.2,0,16.8-7.6,16.8-16.8c0-9.2-7.6-16.8-16.8-16.8c-2.4,0-4-1.6-4-4s1.6-4,4-4
	c13.6,0,24.8,11.2,24.8,24.8C84.61,436.426,73.81,447.226,60.21,447.226z"/>
<path d="M217.01,286.026c-2.8,0-5.6-0.4-8.8-1.2c-7.6-2.4-14-7.6-18-14.4c-4-7.2-4.8-15.2-2.4-22.8c0.8-2,2.8-3.2,4.8-2.8
	c2,0.8,3.2,2.8,2.8,4.8c-1.6,5.6-1.2,11.6,1.6,16.8c2.8,5.2,7.6,8.8,13.2,10.8c5.6,1.6,11.6,1.2,16.8-1.6c5.2-2.8,8.8-7.6,10.8-13.2
	c0.8-2,2.8-3.2,4.8-2.8c2,0.8,3.2,2.8,2.8,4.8c-2.4,7.6-7.6,14-14.4,18C226.61,284.426,221.81,286.026,217.01,286.026z"/>
<path d="M485.81,191.226c-0.4,0-0.8,0-1.2,0c-2-0.4-3.6-2.8-2.8-4.8l2.8-11.2c0.4-2,2.8-3.2,4.8-2.8c2,0.4,3.6,2.8,2.8,4.8
	l-2.8,11.2C489.01,190.426,487.41,191.226,485.81,191.226z"/>
<path d="M457.81,296.026c-0.4,0-0.8,0-1.2,0c-2-0.4-3.2-2.8-2.8-4.8l19.6-72.8c0.4-2,2.8-3.2,4.8-2.8c2,0.4,3.2,2.8,2.8,4.8
	l-19.6,72.8C461.01,294.826,459.41,296.026,457.81,296.026z"/>
<path d="M171.81,434.426h-88.8c-2.4,0-4-1.6-4-4s1.6-4,4-4h88.8c1.2,0,3.2-2,4-4.4c0.8-3.2,35.2-138.4,35.2-139.6
	c0.4-2,2.8-3.6,4.8-2.8c2,0.4,3.6,2.8,2.8,4.8c-1.6,5.6-34.4,136.4-35.2,140C181.81,429.226,177.41,434.426,171.81,434.426z"/>
<path d="M165.41,418.426h-86.4c-2.4,0-4-1.6-4-4s1.6-4,4-4h83.6l34.4-131.6c0.4-2,2.8-3.6,4.8-2.8c2,0.4,3.6,2.8,2.8,4.8
	l-35.2,134.4C169.01,417.226,167.41,418.426,165.41,418.426z"/>
</svg>