<?xml version="1.0" encoding="iso-8859-1"?>
<!-- Uploaded to: SVG Repo, www.svgrepo.com, Generator: SVG Repo Mixer Tools -->
<svg height="800px" width="800px" version="1.1" id="Layer_1" xmlns="http://www.w3.org/2000/svg" xmlns:xlink="http://www.w3.org/1999/xlink" 
	 viewBox="0 0 512 512" xml:space="preserve">
<path style="fill:#C34A48;" d="M409.267,44.11c0-24.362-19.748-44.11-44.11-44.11H146.843c-24.362,0-44.11,19.748-44.11,44.11
	V467.89c0,24.361,19.748,44.11,44.11,44.11h218.314c24.361,0,44.11-19.748,44.11-44.11V44.11z"/>
<path style="fill:#FB5858;" d="M256,0H146.843c-24.362,0-44.11,19.748-44.11,44.11V467.89c0,24.361,19.748,44.11,44.11,44.11H256V0z
	"/>
<path style="fill:#ABA8AB;" d="M102.733,453.137v14.754c0,24.361,19.748,44.11,44.11,44.11h218.314
	c24.361,0,44.11-19.748,44.11-44.11v-14.754H102.733z"/>
<g>
	<path style="fill:#CCCCCC;" d="M102.733,453.137v14.754c0,24.361,19.748,44.11,44.11,44.11H256v-58.863H102.733z"/>
	<path style="fill:#CCCCCC;" d="M409.267,44.11c0-24.362-19.748-44.11-44.11-44.11H146.843c-24.362,0-44.11,19.748-44.11,44.11
		v140.255h306.534V44.11z"/>
</g>
<path style="fill:#E1E1E1;" d="M256,0H146.843c-24.362,0-44.11,19.748-44.11,44.11v140.255H256V0z"/>
<path style="fill:#CCCCCC;" d="M171.592,344.295c-9.2,0-16.659-7.459-16.659-16.659v-86.629c0-9.2,7.459-16.659,16.659-16.659
	c9.2,0,16.659,7.459,16.659,16.659v86.629C188.252,336.836,180.793,344.295,171.592,344.295z"/>
<path style="fill:#E1E1E1;" d="M171.592,344.295c-9.2,0-16.659-7.459-16.659-16.659v-86.629c0-9.2,7.459-16.659,16.659-16.659
	V344.295z"/>
<path style="fill:#ABA8AB;" d="M171.592,126.612c-9.2,0-16.659-7.459-16.659-16.659V76.633c0-9.2,7.459-16.659,16.659-16.659
	c9.2,0,16.659,7.459,16.659,16.659v33.319C188.252,119.153,180.793,126.612,171.592,126.612z"/>
<path style="fill:#CCCCCC;" d="M171.592,126.612c-9.2,0-16.659-7.459-16.659-16.659V76.633c0-9.2,7.459-16.659,16.659-16.659
	V126.612z"/>
</svg>