<?xml version="1.0" encoding="iso-8859-1"?>
<!-- Uploaded to: SVG Repo, www.svgrepo.com, Generator: SVG Repo Mixer Tools -->
<svg height="800px" width="800px" version="1.1" id="Layer_1" xmlns="http://www.w3.org/2000/svg" xmlns:xlink="http://www.w3.org/1999/xlink" 
	 viewBox="0 0 512.003 512.003" xml:space="preserve">
<g>
	<g>
		<path style="fill:#7F6E5D;" d="M481.628,190.915c-4.799,0-8.678-3.888-8.678-8.678v-43.39c0-4.79,3.879-8.678,8.678-8.678
			s8.678,3.888,8.678,8.678v43.39C490.306,187.028,486.427,190.915,481.628,190.915"/>
		<path style="fill:#7F6E5D;" d="M30.374,190.915c-4.79,0-8.678-3.888-8.678-8.678v-43.39c0-4.79,3.888-8.678,8.678-8.678
			s8.678,3.888,8.678,8.678v43.39C39.052,187.028,35.164,190.915,30.374,190.915"/>
	</g>
	<g>
		<path style="fill:#F0C419;" d="M56.408,112.814c0,14.379-11.655,26.034-26.034,26.034S4.34,127.193,4.34,112.814
			S15.995,86.78,30.374,86.78S56.408,98.434,56.408,112.814"/>
		<path style="fill:#F0C419;" d="M507.662,112.814c0,14.379-11.655,26.034-26.034,26.034s-26.034-11.655-26.034-26.034
			s11.655-26.034,26.034-26.034S507.662,98.434,507.662,112.814"/>
	</g>
	<g>
		<path style="fill:#7F6E5D;" d="M117.154,485.966c-4.79,0-8.678-3.888-8.678-8.678V216.949c0-4.79,3.888-8.678,8.678-8.678
			s8.678,3.888,8.678,8.678v260.339C125.832,482.078,121.944,485.966,117.154,485.966"/>
		<path style="fill:#7F6E5D;" d="M186.578,485.966c-4.79,0-8.678-3.888-8.678-8.678V216.949c0-4.79,3.888-8.678,8.678-8.678
			s8.678,3.888,8.678,8.678v260.339C195.256,482.078,191.368,485.966,186.578,485.966"/>
		<path style="fill:#7F6E5D;" d="M256.001,485.966c-4.79,0-8.678-3.888-8.678-8.678V216.949c0-4.79,3.888-8.678,8.678-8.678
			c4.79,0,8.678,3.888,8.678,8.678v260.339C264.679,482.078,260.792,485.966,256.001,485.966"/>
		<path style="fill:#7F6E5D;" d="M325.425,485.966c-4.79,0-8.678-3.888-8.678-8.678V216.949c0-4.79,3.888-8.678,8.678-8.678
			s8.678,3.888,8.678,8.678v260.339C334.103,482.078,330.215,485.966,325.425,485.966"/>
		<path style="fill:#7F6E5D;" d="M394.849,485.966c-4.79,0-8.678-3.888-8.678-8.678V216.949c0-4.79,3.888-8.678,8.678-8.678
			s8.678,3.888,8.678,8.678v260.339C403.527,482.078,399.639,485.966,394.849,485.966"/>
		<path style="fill:#7F6E5D;" d="M47.73,468.613h416.542V225.63H47.73V468.613z M472.95,485.969H39.052
			c-4.79,0-8.678-3.888-8.678-8.678V216.952c0-4.799,3.888-8.678,8.678-8.678H472.95c4.799,0,8.678,3.879,8.678,8.678v260.339
			C481.628,482.081,477.749,485.969,472.95,485.969L472.95,485.969z"/>
		<polygon style="fill:#7F6E5D;" points="47.73,512.003 464.272,512.003 464.272,468.613 47.73,468.613 		"/>
	</g>
	<g>
		<path style="fill:#AF8066;" d="M47.73,512H13.018V199.593c0-9.589,7.767-17.356,17.356-17.356s17.356,7.767,17.356,17.356V512z"/>
		<path style="fill:#AF8066;" d="M498.984,512h-34.712V199.593c0-9.589,7.767-17.356,17.356-17.356s17.356,7.767,17.356,17.356V512z
			"/>
	</g>
	<path style="fill:#D1D4D1;" d="M256.001,121.585c-4.79,0-8.678-3.888-8.678-8.678V34.71c0-4.79,3.888-8.678,8.678-8.678
		c4.79,0,8.678,3.888,8.678,8.678v78.197C264.679,117.698,260.792,121.585,256.001,121.585"/>
	<path style="fill:#26B99A;" d="M286.32,157.425l-20.211,20.211c-5.58,5.58-14.631,5.58-20.211,0l-20.22-20.211
		c-5.58-5.58-5.58-14.631,0-20.211l20.22-20.211c5.58-5.589,14.631-5.589,20.211,0l20.211,20.211
		C291.9,142.794,291.9,151.845,286.32,157.425"/>
	<g>
		<path style="fill:#D1D4D1;" d="M386.162,121.492c-1.519,0-3.063-0.399-4.46-1.241l-130.17-78.102
			c-4.105-2.465-5.441-7.793-2.968-11.906c2.456-4.113,7.784-5.441,11.906-2.968l130.169,78.102
			c4.105,2.465,5.441,7.793,2.968,11.906C391.985,119.99,389.113,121.492,386.162,121.492"/>
		<path style="fill:#D1D4D1;" d="M134.518,112.814c-3.011,0-5.944-1.571-7.541-4.374c-2.378-4.157-0.937-9.459,3.228-11.837
			l121.492-69.424c4.157-2.378,9.468-0.937,11.837,3.228c2.378,4.157,0.937,9.459-3.228,11.837l-121.492,69.424
			C137.46,112.449,135.976,112.814,134.518,112.814"/>
	</g>
	<path style="fill:#F0C419;" d="M134.51,138.847c0-12.817,7.02-23.882,17.356-29.896c-5.12-2.985-11.004-4.816-17.356-4.816
		c-19.17,0-34.712,15.542-34.712,34.712s15.542,34.712,34.712,34.712c6.352,0,12.236-1.831,17.356-4.816
		C141.53,162.729,134.51,151.665,134.51,138.847"/>
	<polygon style="fill:#E64C3C;" points="386.106,112.814 396.849,134.587 420.887,138.084 403.496,155.032 407.601,178.966 
		386.106,167.667 364.61,178.966 368.715,155.032 351.324,138.084 375.362,134.587 	"/>
	<path style="fill:#D1D4D1;" d="M256.001,43.39c-4.79,0-8.678-3.888-8.678-8.678V8.678c0-4.79,3.888-8.678,8.678-8.678
		c4.79,0,8.678,3.888,8.678,8.678v26.034C264.679,39.502,260.792,43.39,256.001,43.39"/>
</g>
</svg>