<?xml version="1.0" encoding="iso-8859-1"?>
<!-- Uploaded to: SVG Repo, www.svgrepo.com, Generator: SVG Repo Mixer Tools -->
<svg  version="1.1" id="Layer_1" xmlns="http://www.w3.org/2000/svg" xmlns:xlink="http://www.w3.org/1999/xlink" 
	 viewBox="0 0 512 512" xml:space="preserve">
<path style="fill:#FCCFEF;" d="M111.899,512c-12.115,0-21.935-9.82-21.935-21.935c0-49.175,31.787-81.527,33.14-82.881l31.02,31.021
	l0.115-0.116c-0.204,0.21-20.406,21.402-20.406,51.977C133.834,502.18,124.014,512,111.899,512z"/>
<path style="opacity:0.1;enable-background:new    ;" d="M108.609,490.065c0-33.6,14.837-59.337,24.669-72.707l-10.173-10.173
	c-1.353,1.353-33.14,33.706-33.14,82.881c0,12.115,9.82,21.935,21.935,21.935c3.338,0,6.489-0.768,9.322-2.101
	C113.774,506.391,108.609,498.841,108.609,490.065z"/>
<path style="fill:#FCCFEF;" d="M400.1,512c12.115,0,21.935-9.82,21.935-21.935c0-49.175-31.787-81.527-33.14-82.881l-31.02,31.021
	l-0.115-0.116c0.204,0.21,20.406,21.402,20.406,51.977C378.165,502.18,387.985,512,400.1,512z"/>
<path style="opacity:0.1;enable-background:new    ;" d="M396.81,490.065c0-30.575-20.202-51.766-20.406-51.977l0.115,0.116
	l20.847-20.848c-4.558-6.198-8.042-9.745-8.471-10.173l-31.02,31.021l-0.115-0.116c0.204,0.21,20.406,21.402,20.406,51.977
	c0,12.115,9.82,21.935,21.935,21.935c3.339,0,6.489-0.768,9.322-2.101C401.976,506.391,396.81,498.841,396.81,490.065z"/>
<path style="fill:#BF9DB6;" d="M129.321,458.045L129.321,458.045c-29.544,0-53.494-23.95-53.494-53.494V283.768
	c0-15.415-12.495-27.91-27.91-27.91l0,0v-26.826h416.164v26.826l0,0c-15.415,0-27.91,12.495-27.91,27.91V404.55
	c0,29.544-23.95,53.494-53.494,53.494l0,0H129.321V458.045z"/>
<path style="opacity:0.1;enable-background:new    ;" d="M130.664,404.551V283.768c0-15.414-12.495-27.91-27.91-27.91l0,0v-26.826
	H47.917v26.826l0,0c15.415,0,27.91,12.496,27.91,27.91V404.55c0,29.544,23.95,53.494,53.494,53.494l0,0h54.837
	C154.614,458.045,130.664,434.094,130.664,404.551z"/>
<g>
	<circle style="fill:#B3EDFF;" cx="177.54" cy="73.387" r="30.873"/>
	<circle style="fill:#B3EDFF;" cx="71.419" cy="114.379" r="21.599"/>
	<circle style="fill:#B3EDFF;" cx="56.647" cy="38.463" r="20.153"/>
	<path style="fill:#B3EDFF;" d="M71.212,216.583h140.61c11.571-7.366,19.254-20.295,19.254-35.028
		c0-22.922-18.581-41.503-41.503-41.503c-13.123,0-24.814,6.097-32.42,15.604c-5.622-5.057-13.058-8.138-21.215-8.138
		c-15.732,0-28.782,11.448-31.293,26.465c-4.682-3.866-10.686-6.188-17.231-6.188c-14.957,0-27.082,12.126-27.082,27.082
		C60.331,203.76,64.607,211.644,71.212,216.583z"/>
</g>
<path style="fill:#4D3332;" d="M368.061,250.968c-62.427,0-113.215-50.788-113.215-113.215v-24.54
	C254.847,50.788,305.634,0,368.061,0s113.215,50.788,113.215,113.215v24.54C481.275,200.18,430.487,250.968,368.061,250.968z"/>
<path style="fill:#FFC1A6;" d="M351.094,61.43c0,0-19.366,37.166-73.947,43.842c-0.226,2.619-0.365,5.263-0.365,7.942v24.54
	c0,50.412,40.867,91.28,91.28,91.28l0,0c50.412,0,91.28-40.867,91.28-91.28v-24.54c0-2.585-0.134-5.138-0.344-7.668
	C361.064,99.683,351.094,61.43,351.094,61.43z"/>
<g>
	<circle style="fill:#4D3332;" cx="325.853" cy="135.766" r="10.282"/>
	<circle style="fill:#4D3332;" cx="410.269" cy="135.766" r="10.282"/>
	<path style="fill:#4D3332;" d="M368.061,179.865c-10.113,0-18.884-2.312-24.064-6.344c-3.585-2.79-4.229-7.958-1.44-11.543
		c2.79-3.585,7.958-4.229,11.543-1.44c1.428,1.112,6.481,2.876,13.959,2.876s12.531-1.764,13.959-2.876
		c3.585-2.791,8.752-2.146,11.543,1.439c2.79,3.585,2.146,8.753-1.439,11.543C386.946,177.552,378.175,179.865,368.061,179.865z"/>
</g>
<path style="fill:#FCCFEF;" d="M472.802,202.206H39.197c-14.816,0-26.826,12.01-26.826,26.826l0,0
	c0,14.816,12.01,26.826,26.826,26.826h433.606c14.816,0,26.826-12.01,26.826-26.826l0,0
	C499.628,214.217,487.618,202.206,472.802,202.206z"/>
<path style="opacity:0.1;enable-background:new    ;" d="M78.175,229.033L78.175,229.033c0-14.816,12.01-26.826,26.826-26.826
	H39.197c-14.816,0-26.826,12.01-26.826,26.826l0,0c0,14.816,12.01,26.825,26.826,26.825h65.805
	C90.186,255.858,78.175,243.848,78.175,229.033z"/>
</svg>