<?xml version="1.0" encoding="iso-8859-1"?>
<!-- Uploaded to: SVG Repo, www.svgrepo.com, Generator: SVG Repo Mixer Tools -->
<svg  version="1.1" id="Layer_1" xmlns="http://www.w3.org/2000/svg" xmlns:xlink="http://www.w3.org/1999/xlink" 
	 viewBox="0 0 512 512" xml:space="preserve">
<path style="fill:#FCCFEF;" d="M116.386,504.031c-11.737,0-21.252-9.515-21.252-21.252c0-47.644,30.797-78.989,32.109-80.301
	l30.055,30.056l0.112-0.113c-0.198,0.203-19.771,20.736-19.771,50.359C137.638,494.516,128.123,504.031,116.386,504.031z"/>
<path style="opacity:0.1;enable-background:new    ;" d="M113.198,482.779c0-32.554,14.375-57.49,23.901-70.444l-9.857-9.857
	c-1.311,1.311-32.109,32.657-32.109,80.301c0,11.737,9.515,21.252,21.252,21.252c3.235,0,6.287-0.744,9.032-2.036
	C118.203,498.596,113.198,491.281,113.198,482.779z"/>
<path style="fill:#FCCFEF;" d="M395.615,504.031c11.737,0,21.252-9.515,21.252-21.252c0-47.644-30.797-78.989-32.109-80.301
	l-30.055,30.056l-0.112-0.113c0.198,0.203,19.771,20.736,19.771,50.359C374.363,494.516,383.877,504.031,395.615,504.031z"/>
<path style="opacity:0.1;enable-background:new    ;" d="M392.427,482.779c0-29.623-19.573-50.155-19.771-50.359l0.112,0.113
	l20.198-20.199c-4.416-6.005-7.792-9.441-8.208-9.857l-30.055,30.056l-0.112-0.113c0.198,0.203,19.771,20.736,19.771,50.359
	c0,11.737,9.515,21.252,21.252,21.252c3.235,0,6.287-0.744,9.032-2.036C397.433,498.596,392.427,491.281,392.427,482.779z"/>
<path style="fill:#BF9DB6;" d="M133.265,451.755L133.265,451.755c-28.624,0-51.828-23.204-51.828-51.828V282.903
	c0-14.935-12.106-27.041-27.041-27.041l0,0v-25.991h403.209v25.991l0,0c-14.935,0-27.041,12.106-27.041,27.041v117.022
	c0,28.624-23.204,51.828-51.828,51.828l0,0h-245.47V451.755z"/>
<path style="opacity:0.1;enable-background:new    ;" d="M134.567,399.927V282.903c0-14.934-12.106-27.041-27.041-27.041l0,0
	v-25.991h-53.13v25.991l0,0c14.935,0,27.041,12.107,27.041,27.041v117.022c0,28.624,23.204,51.828,51.828,51.828l0,0h53.13
	C157.771,451.755,134.567,428.55,134.567,399.927z"/>
<g>
	<circle style="fill:#B3EDFF;" cx="179.983" cy="79.068" r="29.912"/>
	<circle style="fill:#B3EDFF;" cx="77.166" cy="118.788" r="20.927"/>
	<circle style="fill:#B3EDFF;" cx="62.853" cy="45.236" r="19.525"/>
	<path style="fill:#B3EDFF;" d="M76.965,217.81h136.233c11.21-7.136,18.655-19.663,18.655-33.937
		c0-22.208-18.003-40.211-40.211-40.211c-12.714,0-24.041,5.907-31.41,15.119c-5.447-4.9-12.651-7.884-20.555-7.884
		c-15.242,0-27.886,11.091-30.319,25.642c-4.536-3.746-10.353-5.995-16.695-5.995c-14.492,0-26.239,11.748-26.239,26.239
		C66.423,205.387,70.566,213.025,76.965,217.81z"/>
</g>
<path d="M364.573,251.124c-60.483,0-109.69-49.207-109.69-109.69v-23.776c0-60.483,49.207-109.69,109.69-109.69
	s109.69,49.207,109.69,109.69v23.776C474.263,201.917,425.056,251.124,364.573,251.124z"/>
<path style="fill:#FFC1A6;" d="M348.134,67.487c0,0-18.763,36.009-71.645,42.477c-0.219,2.537-0.354,5.099-0.354,7.694v23.776
	c0,48.842,39.595,88.438,88.438,88.438l0,0c48.842,0,88.438-39.595,88.438-88.438v-23.776c0-2.505-0.13-4.978-0.334-7.43
	C357.793,104.549,348.134,67.487,348.134,67.487z"/>
<path style="fill:#FCCFEF;" d="M466.053,203.881H45.946c-14.355,0-25.991,11.637-25.991,25.991l0,0
	c0,14.355,11.637,25.991,25.991,25.991h420.107c14.355,0,25.991-11.637,25.991-25.991l0,0
	C492.044,215.518,480.408,203.881,466.053,203.881z"/>
<path style="opacity:0.1;enable-background:new    ;" d="M83.712,229.872L83.712,229.872c0-14.355,11.637-25.991,25.991-25.991
	H45.947c-14.355,0-25.991,11.637-25.991,25.991l0,0c0,14.355,11.637,25.99,25.991,25.99h63.756
	C95.348,255.862,83.712,244.226,83.712,229.872z"/>
<path d="M142.1,79.072c0,20.888,16.993,37.882,37.881,37.882s37.882-16.994,37.882-37.882s-16.994-37.881-37.882-37.881
	S142.1,58.184,142.1,79.072z M201.924,79.072c0,12.099-9.844,21.943-21.943,21.943c-12.099,0-21.942-9.844-21.942-21.943
	s9.843-21.942,21.942-21.942C192.08,57.131,201.924,66.972,201.924,79.072z"/>
<path d="M77.163,147.689c15.934,0,28.896-12.963,28.896-28.896S93.097,89.896,77.163,89.896s-28.896,12.963-28.896,28.896
	C48.267,134.726,61.23,147.689,77.163,147.689z M77.163,105.835c7.145,0,12.957,5.812,12.957,12.957s-5.812,12.957-12.957,12.957
	s-12.957-5.812-12.957-12.957S70.019,105.835,77.163,105.835z"/>
<path d="M90.349,45.236c0-15.161-12.334-27.495-27.495-27.495S35.359,30.075,35.359,45.236s12.334,27.495,27.495,27.495
	S90.349,60.396,90.349,45.236z M51.298,45.236c0-6.372,5.183-11.556,11.556-11.556S74.41,38.865,74.41,45.236
	s-5.183,11.556-11.556,11.556S51.298,51.607,51.298,45.236z"/>
<circle cx="323.679" cy="139.509" r="9.962"/>
<circle cx="405.467" cy="139.509" r="9.962"/>
<path d="M378.098,163.51c-1.384,1.077-6.279,2.786-13.525,2.786s-12.141-1.709-13.525-2.786c-3.474-2.702-8.481-2.078-11.184,1.395
	c-2.703,3.474-2.078,8.481,1.395,11.184c5.019,3.906,13.516,6.146,23.315,6.146c9.799,0,18.297-2.24,23.316-6.147
	c3.474-2.703,4.096-7.711,1.394-11.184C386.577,161.43,381.571,160.805,378.098,163.51z"/>
<path d="M333.078,263.832c4.401,0,7.97-3.568,7.97-7.97c0-4.401-3.568-7.969-7.97-7.969h-28.214c-4.401,0-7.97,3.568-7.97,7.969
	c0,4.401,3.568,7.97,7.97,7.97H333.078z"/>
<path d="M54.396,263.832c10.515,0,19.07,8.556,19.07,19.072v117.022c0,17.699,7.736,33.62,19.996,44.578
	c-4.181,12.542-6.298,25.391-6.298,38.275c0,16.113,13.108,29.221,29.222,29.221s29.221-13.108,29.221-29.221
	c0-7.7,1.516-15.432,4.471-23.054h35.65c4.401,0,7.97-3.568,7.97-7.97s-3.568-7.969-7.97-7.969h-40.928h-11.536
	c-3.677,0-7.355-0.46-10.917-1.376c-0.022-0.005-0.046-0.012-0.068-0.018c-18.885-4.889-32.875-22.073-32.875-42.466V282.903
	c0-7.031-2.091-13.58-5.673-19.072h183.34c4.401,0,7.97-3.568,7.97-7.97c0-4.401-3.568-7.969-7.97-7.969H45.945
	c-9.936,0-18.021-8.084-18.021-18.022s8.084-18.021,18.021-18.021h21.46h159.103h47.937h27.506H427.19h27.506h11.356
	c9.937,0,18.022,8.084,18.022,18.022s-8.084,18.021-18.022,18.021H371.33c-4.401,0-7.969,3.568-7.969,7.969s3.568,7.969,7.969,7.969
	h56.935c-3.582,5.492-5.673,12.04-5.673,19.072v117.022c0,20.391-13.989,37.577-32.875,42.466c-0.022,0.005-0.046,0.012-0.068,0.018
	c-3.56,0.9-7.244,1.376-10.917,1.376h-11.536H229.181c-4.401,0-7.969,3.568-7.969,7.969c0,4.401,3.568,7.97,7.969,7.97h132.74
	c2.955,7.623,4.473,15.356,4.473,23.054c0,16.113,13.108,29.222,29.221,29.222s29.221-13.108,29.221-29.222
	c0-12.885-2.118-25.734-6.299-38.275c12.26-10.959,19.996-26.878,19.996-44.578V282.903c0-10.516,8.556-19.072,19.072-19.072h8.449
	c18.726,0,33.961-15.235,33.961-33.961c0-17.812-13.788-32.455-31.251-33.843c8.837-16.777,13.468-35.395,13.468-54.595v-23.775
	C482.232,52.781,429.45,0,364.573,0S246.914,52.781,246.914,117.66v23.775c0,19.156,4.611,37.731,13.408,54.477H238.28
	c1.013-3.919,1.544-7.963,1.544-12.039c0-26.566-21.613-48.18-48.18-48.18c-12.139,0-23.601,4.495-32.411,12.532
	c-5.889-3.45-12.62-5.299-19.554-5.299c-15.241,0-28.59,8.746-34.888,21.872c-3.85-1.459-7.96-2.225-12.126-2.225
	c-18.571,0-33.722,14.877-34.187,33.339h-12.53c-18.725,0-33.96,15.234-33.96,33.961s15.234,33.96,33.96,33.96h8.45V263.832z
	 M107.262,453.785c7.9,3.832,16.64,5.844,25.415,5.924c0.171,0.001,0.341,0.015,0.512,0.015c-2.341,7.609-3.523,15.326-3.523,23.054
	c0,7.325-5.958,13.283-13.283,13.283c-7.324,0-13.282-5.958-13.282-13.283C103.103,473.058,104.499,463.341,107.262,453.785z
	 M395.615,496.061c-7.324,0-13.283-5.958-13.283-13.283c0-7.728-1.182-15.445-3.524-23.054c0.171,0,0.341-0.013,0.512-0.015
	c8.74-0.086,17.547-2.107,25.416-5.924c2.764,9.555,4.16,19.271,4.16,28.993C408.897,490.102,402.939,496.061,395.615,496.061z
	 M262.853,117.66c0-56.088,45.631-101.721,101.721-101.721S466.294,61.57,466.294,117.66v23.775
	c0,19.431-5.471,38.177-15.861,54.477h-6.319c10.952-15.921,16.867-34.744,16.867-54.477v-23.776c0-2.519-0.118-5.165-0.36-8.089
	c-0.327-3.951-3.509-7.06-7.466-7.297c-14.803-0.886-28.375-2.62-40.337-5.155c-4.309-0.909-8.536,1.84-9.449,6.145
	c-0.912,4.306,1.839,8.536,6.145,9.449c10.761,2.279,22.684,3.946,35.528,4.972v23.749c0,20.367-7.52,39.585-21.246,54.477H305.351
	c-13.727-14.892-21.247-34.112-21.247-54.477v-23.776c0-0.254,0.001-0.509,0.004-0.767c34.029-5.92,53.815-23.377,63.532-34.943
	c4.884,5.796,12.931,12.772,26.077,19.089c3.969,1.905,8.728,0.235,10.636-3.732c1.906-3.968,0.236-8.728-3.732-10.636
	c-19.998-9.609-24.389-20.204-24.798-21.305c-0.711-3.231-3.318-5.478-6.605-5.953c-3.318-0.48-6.552,1.394-8.133,4.356
	c-0.706,1.322-17.836,32.448-65.563,38.285c-3.741,0.458-6.65,3.474-6.973,7.229c-0.257,3.002-0.383,5.741-0.383,8.375v23.776
	c0,19.734,5.913,38.556,16.868,54.477h-6.318c-10.39-16.301-15.86-35.048-15.86-54.477V117.66H262.853z M92.662,178.511
	c4.297,0,8.316,1.442,11.622,4.172c2.195,1.813,5.194,2.315,7.862,1.32c2.668-0.997,4.602-3.342,5.072-6.151
	c1.839-11.002,11.285-18.988,22.459-18.988c5.632,0,11.038,2.074,15.225,5.84c1.631,1.467,3.796,2.194,5.98,2.018
	c2.187-0.179,4.203-1.252,5.572-2.965c6.165-7.707,15.346-12.127,25.188-12.127c17.777,0,32.241,14.463,32.241,32.241
	c0,4.136-0.8,8.229-2.338,12.039H74.412C74.868,186.24,82.88,178.511,92.662,178.511z"/>
</svg>