<?xml version="1.0" encoding="iso-8859-1"?>
<!-- Uploaded to: SVG Repo, www.svgrepo.com, Generator: SVG Repo Mixer Tools -->
<svg version="1.1" id="Layer_1" xmlns="http://www.w3.org/2000/svg" xmlns:xlink="http://www.w3.org/1999/xlink" 
	 viewBox="0 0 512 512" xml:space="preserve">
<path style="fill:#55D0FF;" d="M478.242,0h-33.758v512h33.758C496.809,512,512,496.809,512,478.242V33.758
	C512,15.191,496.809,0,478.242,0z"/>
<path style="fill:#AAE8FF;" d="M478.242,33.758v444.484c0,18.567-15.191,33.758-33.758,33.758H33.758
	C15.191,512,0,496.809,0,478.242V33.758C0,15.191,15.191,0,33.758,0h410.725C463.051,0,478.242,15.191,478.242,33.758z"/>
<polygon style="fill:#FFE9B7;" points="239.087,33.758 239.087,239.132 205.329,239.132 171.571,136.445 205.329,33.758 "/>
<rect x="33.758" y="33.758" style="fill:#FFFFFF;" width="171.571" height="205.374"/>
<path style="fill:#E52C22;" d="M136.451,68.923v135.033c27.974,0,50.637-22.663,50.637-50.637
	C186.436,110.311,155.524,68.923,136.451,68.923z"/>
<path style="fill:#F27524;" d="M85.825,153.319c0,27.974,22.663,50.637,50.626,50.637V68.923
	C117.389,68.923,86.477,110.311,85.825,153.319z"/>
<path style="fill:#EC5123;" d="M136.451,68.923c-6.354,0-16.769,41.386-16.878,84.396c-0.071,27.966,7.556,50.637,16.878,50.637
	c9.329,0,16.958-22.663,16.879-50.637C153.229,110.311,142.809,68.923,136.451,68.923z"/>
<polygon style="fill:#5B4FFF;" points="239.155,272.866 239.155,478.238 205.396,478.238 171.638,375.551 205.396,272.866 "/>
<rect x="33.826" y="272.868" style="fill:#2E84FF;" width="171.571" height="205.374"/>
<polygon style="fill:#FFE9B7;" points="478.242,272.866 478.242,478.238 444.484,478.238 410.725,375.551 444.484,272.866 "/>
<rect x="272.913" y="272.868" style="fill:#FFFFFF;" width="171.571" height="205.374"/>
<polygon style="fill:#5B4FFF;" points="478.242,33.758 478.242,239.132 444.484,239.132 410.725,136.445 444.484,33.758 "/>
<rect x="272.913" y="33.758" style="fill:#2E84FF;" width="171.571" height="205.374"/>
<path style="fill:#FFD46E;" d="M354.495,68.923c37.235,0,67.505,30.292,67.505,67.516c0,37.235-30.27,67.528-67.505,67.528
	l22.494-67.528L354.495,68.923z"/>
<path style="fill:#FFE9B7;" d="M354.495,68.923c18.612,0,33.747,30.292,33.747,67.516c0,37.235-15.135,67.528-33.747,67.528
	c-13.976,0-25.341-11.343-25.341-25.33c0-13.976,11.365-25.319,25.341-25.319c9.272-0.045,16.868-7.596,16.868-16.879
	c0-9.272-7.596-16.823-16.868-16.879c-13.976,0-25.341-11.332-25.341-25.319C329.154,80.266,340.519,68.923,354.495,68.923z"/>
<path style="fill:#FFD46E;" d="M115.377,308.041c37.235,0,67.505,30.292,67.505,67.516c0,37.235-30.27,67.528-67.505,67.528
	l22.494-67.528L115.377,308.041z"/>
<path style="fill:#FFE9B7;" d="M115.377,308.041c18.612,0,33.747,30.292,33.747,67.516c0,37.235-15.135,67.528-33.747,67.528
	c-13.976,0-25.341-11.343-25.341-25.33c0-13.976,11.365-25.319,25.341-25.319c9.272-0.045,16.868-7.596,16.868-16.879
	c0-9.272-7.596-16.823-16.868-16.879c-13.976,0-25.341-11.332-25.341-25.319C90.035,319.383,101.401,308.041,115.377,308.041z"/>
<path style="fill:#E52C22;" d="M375.577,308.047V443.08c27.974,0,50.637-22.663,50.637-50.637
	C425.562,349.435,394.651,308.047,375.577,308.047z"/>
<path style="fill:#F27524;" d="M324.951,392.443c0,27.974,22.663,50.637,50.626,50.637V308.047
	C356.515,308.047,325.604,349.435,324.951,392.443z"/>
<path style="fill:#EC5123;" d="M375.577,308.047c-6.354,0-16.769,41.386-16.878,84.396c-0.071,27.966,7.556,50.637,16.878,50.637
	c9.329,0,16.958-22.663,16.879-50.637C392.355,349.435,381.935,308.047,375.577,308.047z"/>
</svg>